<svg width="155" height="155" viewBox="0 0 155 155" fill="none" xmlns="http://www.w3.org/2000/svg">
<g opacity="0.25">
<path d="M77.5 76.6566C89.2742 76.6566 98.8103 66.2447 98.8103 53.4974C98.8103 40.9447 89.2742 30.9707 77.5 30.9707C65.7744 30.9707 56.141 41.0907 56.1896 53.5947C56.2383 66.2933 65.7258 76.6566 77.5 76.6566ZM77.5 68.1422C70.7858 68.1422 65.0933 61.7685 65.0933 53.5947C65.0446 45.6155 70.7371 39.4851 77.5 39.4851C84.3115 39.4851 89.9067 45.5182 89.9067 53.4974C89.9067 61.6712 84.2629 68.1422 77.5 68.1422ZM47.14 121.905H107.811C116.228 121.905 120.267 119.229 120.267 113.487C120.267 100.108 103.578 82.3004 77.5 82.3004C51.4216 82.3004 34.6847 100.108 34.6847 113.487C34.6847 119.229 38.723 121.905 47.14 121.905ZM45.6318 113.39C44.4641 113.39 44.0262 113.001 44.0262 112.125C44.0262 104.681 56.0437 90.8148 77.5 90.8148C98.9076 90.8148 110.925 104.681 110.925 112.125C110.925 113.001 110.487 113.39 109.32 113.39H45.6318Z" fill="#1C1C1E"/>
</g>
</svg>
